<svg id="Capa_2" data-name="Capa 2" xmlns="http://www.w3.org/2000/svg" viewBox="0 0 484.82 490.8"><defs><style>.cls-1{font-size:34px;font-family:ErasITC-Light, Eras Light ITC;font-weight:300;letter-spacing:0.03em;}.cls-2{fill:none;stroke:#020202;stroke-miterlimit:10;stroke-width:8px;}</style></defs><title>LOGOFAN</title><text class="cls-1" transform="translate(0 482.3) scale(1.12 1)">Fotografía Artística &amp; Natural</text><rect class="cls-2" x="32.47" y="4" width="397.44" height="397.44" rx="19.04"/><path d="M903.61,579.91c-10.65,5.53-27.35,12.62-36.76,1.14-6.12-7.46-8.45-19.7-7.62-29,1.45-16.12,9.14-32.79,24-40.39,16.53-8.45,35.48-3.35,49,8.46,5.89,5.16,10.55,11.91,12.22,19.65,1.81,8.36.87,17.6.53,26.08-.39,9.78-2.11,19.61-6.13,28.6-2.68,6-7,10.79-11.59,15.34a78.74,78.74,0,0,1-38.55,20.66c-15.63,3.14-36.15-4.43-47-15.84-10.63-11.14-17.3-27.05-20.46-41.94-2.93-13.8-.88-29.15,3.08-42.6a102.48,102.48,0,0,1,20.92-38c7.44-8.3,17.84-17.09,27.94-21.88,15.48-7.34,33.94-5.22,50.12-1.21,15.35,3.81,29.35,11.5,39.88,23.42,21.73,24.61,27.16,63.17,20.51,94.52-3.6,16.94-12.67,32-24,45S934,654.26,918.45,661.69c-14,6.71-30.79,11.31-46.41,9.82-16.55-1.57-33-7.84-47.3-16.19-30-17.6-44.31-52.13-44.2-86.07.06-16.63,3.8-33.34,8.42-49.24,3.89-13.37,8.65-26.32,16-38.17,16.62-26.62,42-43.17,71.66-52.3,17.69-5.45,34.88-9.05,53.31-5,17.92,3.91,36.65,11.89,50.71,23.83,27.77,23.6,39.18,60.08,43,95.16a145.07,145.07,0,0,1,.58,29.68c-.93,9.61-3.65,19-6.38,28.25a151.53,151.53,0,0,1-25.06,48.91c-9.46,12.54-21.64,23.21-34.17,32.6s-26.56,21.7-43.43,20.07c-20-1.94-30.43-22.33-33.09-40.08-1.55-10.32-1.35-20.86-1.3-31.26q.06-16.12.57-32.22A1182.16,1182.16,0,0,1,892.87,468.6q4.59-31.89,10.91-63.51c1.44-7.24,2.71-14.5,3.86-21.79.91-5.71,3-12.81,1.86-18.59-2-10.65-17.13-2.29-22.82-.23-1.78.65-1,3.53.8,2.88,3.68-1.34,16.17-8.16,18.8-3.2,1.55,2.92,0,8.06-.41,11.13-.62,4.29-1.3,8.58-2,12.86-3.51,21.13-8,42.07-11.38,63.24a1186.2,1186.2,0,0,0-13.73,140.26q-.69,18.06-.82,36.12c-.08,11.25-.36,22.63,1.09,33.81,2.15,16.66,9.73,34.47,26,41.73,7.93,3.53,16.84,3.53,25.05,1s14.72-7.72,21.63-12.61c13.08-9.28,26-19.3,36.76-31.26a146.49,146.49,0,0,0,28.29-45.88c7-18.81,11.76-38.47,10.93-58.63-1.53-37.3-12.23-77.55-39.38-104.56-13-13-30.08-21.47-47.51-27-9.83-3.11-20.2-5.11-30.55-4.84-8.9.23-17.62,2.53-26.18,4.82-31,8.31-59,23.4-77.7,50.1-8.65,12.31-14.37,25.71-18.83,40-5.24,16.82-9.37,34.5-9.92,52.17-1.06,33.94,12.67,70.35,42,89.1,14.7,9.39,31.94,16.14,49.27,18.43,15.82,2.09,32.31-1.75,46.85-8,32.06-13.71,61.37-40.39,70-75.24,7.82-31.53,3-70.62-17.27-96.7a78.51,78.51,0,0,0-39.18-26.66c-15.25-4.7-34.61-7.89-50.1-3-12.06,3.84-23.18,12.55-32.23,21.31-10.93,10.57-18.59,24.47-24,38.61a89,89,0,0,0-4.51,19c-1.14,8-2.29,15.83-1.24,23.86a96.11,96.11,0,0,0,18.14,44.45c9.51,12.53,25,19.79,40.42,21.76C891,635.5,906.5,628.71,919,620.63c11.79-7.62,21.15-19.13,25.33-32.51,3.13-10,3.64-20.19,3.86-30.57.17-8.09.49-16.32-2.58-24-5.7-14.2-19.84-23.77-34.14-27.85-15.48-4.41-33.71,1.64-43.46,14.54-8.69,11.5-14.09,28.75-11.29,43.11,1.62,8.3,4.43,17.93,11.59,23.14,11,8,26.23,1.44,36.79-4,1.7-.89.2-3.46-1.5-2.58Z" transform="translate(-669.7 -334.86)"/></svg>